<?xml version="1.0" standalone="no"?><!-- Generator: Gravit.io --><svg xmlns="http://www.w3.org/2000/svg" xmlns:xlink="http://www.w3.org/1999/xlink" style="isolation:isolate" viewBox="495.75 200 47.804 33.25" width="47.804" height="33.25"><g id="Group"><path d=" M 510.549 223.105 L 510.549 217.207 L 511.252 215.879 L 511.252 223.105 L 510.549 223.105 L 510.549 223.105 Z  M 511.955 223.105 L 511.955 214.512 L 512.658 213.184 L 512.658 223.105 L 511.955 223.105 L 511.955 223.105 Z  M 513.361 223.105 L 513.361 211.855 L 514.064 210.518 L 514.064 223.105 L 513.361 223.105 L 513.361 223.105 Z  M 513.879 206.934 L 508.645 216.875 L 508.244 216.143 L 513.088 206.934 L 513.879 206.934 L 513.879 206.934 Z  M 512.287 206.934 L 507.834 215.342 L 507.424 214.6 L 511.486 206.934 L 512.287 206.934 L 512.287 206.934 Z  M 503.127 223.105 L 503.127 215.957 L 503.83 217.285 L 503.83 223.105 L 503.127 223.105 L 503.127 223.105 Z  M 501.721 223.105 L 501.721 213.281 L 502.424 214.609 L 502.424 223.105 L 501.721 223.105 L 501.721 223.105 Z  M 500.314 223.105 L 500.314 210.605 L 501.018 211.943 L 501.018 223.105 L 500.314 223.105 L 500.314 223.105 Z  M 499.699 206.934 L 505.998 218.887 L 505.207 218.887 L 499.611 208.271 L 499.611 223.105 L 498.908 223.105 L 498.908 206.934 L 499.699 206.934 L 499.699 206.934 Z  M 501.301 206.934 L 507.59 218.887 L 506.789 218.887 L 500.5 206.934 L 501.301 206.934 L 501.301 206.934 Z  M 514.768 223.105 L 514.768 208.271 L 509.172 218.887 L 508.371 218.887 L 502.092 206.934 L 502.883 206.934 L 508.781 218.145 L 514.67 206.934 L 515.471 206.934 L 515.471 223.105 L 514.768 223.105 L 514.768 223.105 Z  M 516.877 220.986 L 516.877 220.986 L 516.877 220.283 L 516.877 220.283 Q 517.561 220.283 518.024 219.893 L 518.024 219.893 L 518.024 219.893 Q 518.488 219.502 518.488 218.857 L 518.488 218.857 L 518.488 209.043 L 519.191 209.043 L 519.191 218.857 L 519.191 218.857 Q 519.191 219.785 518.518 220.386 L 518.518 220.386 L 518.518 220.386 Q 517.844 220.986 516.877 220.986 Z  M 516.877 222.393 L 516.877 222.393 L 516.877 221.689 L 516.877 221.689 Q 518.146 221.689 519.021 220.864 L 519.021 220.864 L 519.021 220.864 Q 519.895 220.039 519.895 218.857 L 519.895 218.857 L 519.895 209.043 L 520.598 209.043 L 520.598 218.857 L 520.598 218.857 Q 520.598 220.322 519.519 221.357 L 519.519 221.357 L 519.519 221.357 Q 518.439 222.393 516.877 222.393 Z  M 516.877 223.799 L 516.877 223.799 L 516.877 223.096 L 516.877 223.096 Q 518.732 223.096 520.017 221.855 L 520.017 221.855 L 520.017 221.855 Q 521.301 220.615 521.301 218.857 L 521.301 218.857 L 521.301 209.043 L 522.004 209.043 L 522.004 218.857 L 522.004 218.857 Q 522.004 220.195 521.325 221.333 L 521.325 221.333 L 521.325 221.333 Q 520.646 222.471 519.465 223.135 L 519.465 223.135 L 519.465 223.135 Q 518.283 223.799 516.877 223.799 Z  M 516.877 225.205 L 516.877 225.205 L 516.877 224.502 L 516.877 224.502 Q 518.078 224.502 519.157 224.053 L 519.157 224.053 L 519.157 224.053 Q 520.236 223.604 521.013 222.847 L 521.013 222.847 L 521.013 222.847 Q 521.789 222.09 522.248 221.045 L 522.248 221.045 L 522.248 221.045 Q 522.707 220 522.707 218.857 L 522.707 218.857 L 522.707 209.043 L 523.41 209.043 L 523.41 218.857 L 523.41 218.857 Q 523.41 220.146 522.897 221.318 L 522.897 221.318 L 522.897 221.318 Q 522.385 222.49 521.511 223.345 L 521.511 223.345 L 521.511 223.345 Q 520.637 224.199 519.426 224.702 L 519.426 224.702 L 519.426 224.702 Q 518.215 225.205 516.877 225.205 Z  M 530.573 214.087 L 530.573 214.087 L 530.573 214.087 Q 529.748 214.912 529.748 216.074 L 529.748 216.074 L 529.748 216.074 Q 529.748 217.236 530.573 218.062 L 530.573 218.062 L 530.573 218.062 Q 531.398 218.887 532.561 218.887 L 532.561 218.887 L 532.561 218.887 Q 533.723 218.887 534.548 218.062 L 534.548 218.062 L 534.548 218.062 Q 535.373 217.236 535.373 216.074 L 535.373 216.074 L 535.373 216.074 Q 535.373 214.912 534.548 214.087 L 534.548 214.087 L 534.548 214.087 Q 533.723 213.262 532.561 213.262 L 532.561 213.262 L 532.561 213.262 Q 531.398 213.262 530.573 214.087 Z  M 530.075 218.56 L 530.075 218.56 L 530.075 218.56 Q 529.045 217.529 529.045 216.074 L 529.045 216.074 L 529.045 216.074 Q 529.045 214.619 530.075 213.589 L 530.075 213.589 L 530.075 213.589 Q 531.105 212.559 532.561 212.559 L 532.561 212.559 L 532.561 212.559 Q 534.016 212.559 535.046 213.589 L 535.046 213.589 L 535.046 213.589 Q 536.076 214.619 536.076 216.074 L 536.076 216.074 L 536.076 216.074 Q 536.076 217.529 535.046 218.56 L 535.046 218.56 L 535.046 218.56 Q 534.016 219.59 532.561 219.59 L 532.561 219.59 L 532.561 219.59 Q 531.105 219.59 530.075 218.56 Z  M 529.577 213.096 L 529.577 213.096 L 529.577 213.096 Q 528.342 214.336 528.342 216.074 L 528.342 216.074 L 528.342 216.074 Q 528.342 217.813 529.577 219.053 L 529.577 219.053 L 529.577 219.053 Q 530.813 220.293 532.561 220.293 L 532.561 220.293 L 532.561 220.293 Q 534.309 220.293 535.544 219.053 L 535.544 219.053 L 535.544 219.053 Q 536.779 217.813 536.779 216.074 L 536.779 216.074 L 536.779 216.074 Q 536.779 214.336 535.544 213.096 L 535.544 213.096 L 535.544 213.096 Q 534.309 211.855 532.561 211.855 L 532.561 211.855 L 532.561 211.855 Q 530.813 211.855 529.577 213.096 Z  M 528.298 218.545 L 528.298 218.545 L 528.298 218.545 Q 527.639 217.412 527.639 216.074 L 527.639 216.074 L 527.639 216.074 Q 527.639 214.736 528.298 213.604 L 528.298 213.604 L 528.298 213.604 Q 528.957 212.471 530.09 211.812 L 530.09 211.812 L 530.09 211.812 Q 531.223 211.152 532.561 211.152 L 532.561 211.152 L 532.561 211.152 Q 533.898 211.152 535.031 211.812 L 535.031 211.812 L 535.031 211.812 Q 536.164 212.471 536.823 213.604 L 536.823 213.604 L 536.823 213.604 Q 537.482 214.736 537.482 216.074 L 537.482 216.074 L 537.482 216.074 Q 537.482 217.412 536.823 218.545 L 536.823 218.545 L 536.823 218.545 Q 536.164 219.678 535.031 220.337 L 535.031 220.337 L 535.031 220.337 Q 533.898 220.996 532.561 220.996 L 532.561 220.996 L 532.561 220.996 Q 531.223 220.996 530.09 220.337 L 530.09 220.337 L 530.09 220.337 Q 528.957 219.678 528.298 218.545 Z  M 527.38 213.892 L 527.38 213.892 L 527.38 213.892 Q 526.936 214.932 526.936 216.074 L 526.936 216.074 L 526.936 216.074 Q 526.936 217.217 527.38 218.257 L 527.38 218.257 L 527.38 218.257 Q 527.824 219.297 528.581 220.054 L 528.581 220.054 L 528.581 220.054 Q 529.338 220.811 530.378 221.255 L 530.378 221.255 L 530.378 221.255 Q 531.418 221.699 532.561 221.699 L 532.561 221.699 L 532.561 221.699 Q 533.703 221.699 534.743 221.255 L 534.743 221.255 L 534.743 221.255 Q 535.783 220.811 536.54 220.054 L 536.54 220.054 L 536.54 220.054 Q 537.297 219.297 537.741 218.257 L 537.741 218.257 L 537.741 218.257 Q 538.186 217.217 538.186 216.074 L 538.186 216.074 L 538.186 216.074 Q 538.186 214.932 537.741 213.892 L 537.741 213.892 L 537.741 213.892 Q 537.297 212.852 536.54 212.095 L 536.54 212.095 L 536.54 212.095 Q 535.783 211.338 534.743 210.894 L 534.743 210.894 L 534.743 210.894 Q 533.703 210.449 532.561 210.449 L 532.561 210.449 L 532.561 210.449 Q 531.418 210.449 530.378 210.894 L 530.378 210.894 L 530.378 210.894 Q 529.338 211.338 528.581 212.095 L 528.581 212.095 L 528.581 212.095 Q 527.824 212.852 527.38 213.892 Z  M 526.735 218.535 L 526.735 218.535 L 526.735 218.535 Q 526.232 217.363 526.232 216.074 L 526.232 216.074 L 526.232 216.074 Q 526.232 214.785 526.735 213.613 L 526.735 213.613 L 526.735 213.613 Q 527.238 212.441 528.083 211.597 L 528.083 211.597 L 528.083 211.597 Q 528.928 210.752 530.1 210.249 L 530.1 210.249 L 530.1 210.249 Q 531.271 209.746 532.561 209.746 L 532.561 209.746 L 532.561 209.746 Q 533.85 209.746 535.021 210.249 L 535.021 210.249 L 535.021 210.249 Q 536.193 210.752 537.038 211.597 L 537.038 211.597 L 537.038 211.597 Q 537.883 212.441 538.386 213.613 L 538.386 213.613 L 538.386 213.613 Q 538.889 214.785 538.889 216.074 L 538.889 216.074 L 538.889 216.074 Q 538.889 217.363 538.386 218.535 L 538.386 218.535 L 538.386 218.535 Q 537.883 219.707 537.038 220.552 L 537.038 220.552 L 537.038 220.552 Q 536.193 221.396 535.021 221.899 L 535.021 221.899 L 535.021 221.899 Q 533.85 222.402 532.561 222.402 L 532.561 222.402 L 532.561 222.402 Q 531.271 222.402 530.1 221.899 L 530.1 221.899 L 530.1 221.899 Q 528.928 221.396 528.083 220.552 L 528.083 220.552 L 528.083 220.552 Q 527.238 219.707 526.735 218.535 Z  M 526.086 213.345 L 526.086 213.345 L 526.086 213.345 Q 525.529 214.648 525.529 216.074 L 525.529 216.074 L 525.529 216.074 Q 525.529 217.5 526.086 218.804 L 526.086 218.804 L 526.086 218.804 Q 526.643 220.107 527.585 221.05 L 527.585 221.05 L 527.585 221.05 Q 528.527 221.992 529.831 222.549 L 529.831 222.549 L 529.831 222.549 Q 531.135 223.105 532.561 223.105 L 532.561 223.105 L 532.561 223.105 Q 533.986 223.105 535.29 222.549 L 535.29 222.549 L 535.29 222.549 Q 536.594 221.992 537.536 221.05 L 537.536 221.05 L 537.536 221.05 Q 538.479 220.107 539.035 218.804 L 539.035 218.804 L 539.035 218.804 Q 539.592 217.5 539.592 216.074 L 539.592 216.074 L 539.592 216.074 Q 539.592 214.648 539.035 213.345 L 539.035 213.345 L 539.035 213.345 Q 538.479 212.041 537.536 211.099 L 537.536 211.099 L 537.536 211.099 Q 536.594 210.156 535.29 209.6 L 535.29 209.6 L 535.29 209.6 Q 533.986 209.043 532.561 209.043 L 532.561 209.043 L 532.561 209.043 Q 531.135 209.043 529.831 209.6 L 529.831 209.6 L 529.831 209.6 Q 528.527 210.156 527.585 211.099 L 527.585 211.099 L 527.585 211.099 Q 526.643 212.041 526.086 213.345 Z  M 525.441 219.077 L 525.441 219.077 L 525.441 219.077 Q 524.826 217.646 524.826 216.074 L 524.826 216.074 L 524.826 216.074 Q 524.826 214.502 525.441 213.071 L 525.441 213.071 L 525.441 213.071 Q 526.057 211.641 527.092 210.605 L 527.092 210.605 L 527.092 210.605 Q 528.127 209.57 529.558 208.955 L 529.558 208.955 L 529.558 208.955 Q 530.988 208.34 532.561 208.34 L 532.561 208.34 L 532.561 208.34 Q 534.133 208.34 535.563 208.955 L 535.563 208.955 L 535.563 208.955 Q 536.994 209.57 538.029 210.605 L 538.029 210.605 L 538.029 210.605 Q 539.064 211.641 539.68 213.071 L 539.68 213.071 L 539.68 213.071 Q 540.295 214.502 540.295 216.074 L 540.295 216.074 L 540.295 216.074 Q 540.295 217.646 539.68 219.077 L 539.68 219.077 L 539.68 219.077 Q 539.064 220.508 538.029 221.543 L 538.029 221.543 L 538.029 221.543 Q 536.994 222.578 535.563 223.193 L 535.563 223.193 L 535.563 223.193 Q 534.133 223.809 532.561 223.809 L 532.561 223.809 L 532.561 223.809 Q 530.988 223.809 529.558 223.193 L 529.558 223.193 L 529.558 223.193 Q 528.127 222.578 527.092 221.543 L 527.092 221.543 L 527.092 221.543 Q 526.057 220.508 525.441 219.077 Z " fill-rule="evenodd" fill="rgb(0,0,0)"/><line x1="496" y1="229" x2="541.554" y2="229" vector-effect="non-scaling-stroke" stroke-width="0.5" stroke="rgb(0,0,0)" stroke-linejoin="miter" stroke-linecap="square" stroke-miterlimit="3"/><line x1="496" y1="233" x2="541.554" y2="233" vector-effect="non-scaling-stroke" stroke-width="0.5" stroke="rgb(0,0,0)" stroke-linejoin="miter" stroke-linecap="square" stroke-miterlimit="3"/><line x1="496" y1="231" x2="541.554" y2="231" vector-effect="non-scaling-stroke" stroke-width="0.5" stroke="rgb(0,0,0)" stroke-linejoin="miter" stroke-linecap="square" stroke-miterlimit="3"/></g></svg>